<?xml version="1.0" encoding="utf-8"?>
<!-- Generator: Adobe Illustrator 18.0.0, SVG Export Plug-In . SVG Version: 6.00 Build 0)  -->
<!DOCTYPE svg PUBLIC "-//W3C//DTD SVG 1.1//EN" "http://www.w3.org/Graphics/SVG/1.1/DTD/svg11.dtd">
<svg version="1.1" id="Layer_1" xmlns="http://www.w3.org/2000/svg" xmlns:xlink="http://www.w3.org/1999/xlink" x="0px" y="0px"
	 viewBox="0 0 3 178.5" enable-background="new 0 0 3 178.5" xml:space="preserve">
<g opacity="0.32">
	<g>
		<g>
			<linearGradient id="SVGID_1_" gradientUnits="userSpaceOnUse" x1="1.5" y1="98.8903" x2="1.5" y2="0.736">
				<stop  offset="0" style="stop-color:#FFFFFF"/>
				<stop  offset="1" style="stop-color:#FFFFFF;stop-opacity:0"/>
			</linearGradient>
			<path fill="url(#SVGID_1_)" d="M1.5,178.5c-0.4,0-0.8-0.2-1.1-0.4C0.2,177.7,0,177.4,0,177c0-0.4,0.2-0.8,0.4-1.1
				c0.6-0.6,1.6-0.6,2.1,0c0.3,0.3,0.4,0.7,0.4,1.1c0,0.4-0.2,0.8-0.4,1.1C2.3,178.3,1.9,178.5,1.5,178.5z"/>
		</g>
	</g>
	<g>
		<g>
			<linearGradient id="SVGID_2_" gradientUnits="userSpaceOnUse" x1="1.5" y1="98.8903" x2="1.5" y2="0.736">
				<stop  offset="0" style="stop-color:#FFFFFF"/>
				<stop  offset="1" style="stop-color:#FFFFFF;stop-opacity:0"/>
			</linearGradient>
			<path fill="url(#SVGID_2_)" d="M0,167.2c0-0.8,0.7-1.5,1.5-1.5l0,0c0.8,0,1.5,0.7,1.5,1.5l0,0c0,0.8-0.7,1.5-1.5,1.5l0,0
				C0.7,168.7,0,168.1,0,167.2z M0,157.5c0-0.8,0.7-1.5,1.5-1.5l0,0c0.8,0,1.5,0.7,1.5,1.5l0,0c0,0.8-0.7,1.5-1.5,1.5l0,0
				C0.7,159,0,158.3,0,157.5z M0,147.7c0-0.8,0.7-1.5,1.5-1.5l0,0c0.8,0,1.5,0.7,1.5,1.5l0,0c0,0.8-0.7,1.5-1.5,1.5l0,0
				C0.7,149.2,0,148.5,0,147.7z M0,138c0-0.8,0.7-1.5,1.5-1.5l0,0c0.8,0,1.5,0.7,1.5,1.5l0,0c0,0.8-0.7,1.5-1.5,1.5l0,0
				C0.7,139.5,0,138.8,0,138z M0,128.2c0-0.8,0.7-1.5,1.5-1.5l0,0c0.8,0,1.5,0.7,1.5,1.5l0,0c0,0.8-0.7,1.5-1.5,1.5l0,0
				C0.7,129.7,0,129.1,0,128.2z M0,118.5c0-0.8,0.7-1.5,1.5-1.5l0,0c0.8,0,1.5,0.7,1.5,1.5l0,0c0,0.8-0.7,1.5-1.5,1.5l0,0
				C0.7,120,0,119.3,0,118.5z M0,108.7c0-0.8,0.7-1.5,1.5-1.5l0,0c0.8,0,1.5,0.7,1.5,1.5l0,0c0,0.8-0.7,1.5-1.5,1.5l0,0
				C0.7,110.2,0,109.6,0,108.7z M0,99c0-0.8,0.7-1.5,1.5-1.5l0,0C2.3,97.5,3,98.1,3,99l0,0c0,0.8-0.7,1.5-1.5,1.5l0,0
				C0.7,100.5,0,99.8,0,99z M0,89.2c0-0.8,0.7-1.5,1.5-1.5l0,0c0.8,0,1.5,0.7,1.5,1.5l0,0c0,0.8-0.7,1.5-1.5,1.5l0,0
				C0.7,90.7,0,90.1,0,89.2z M0,79.5C0,78.6,0.7,78,1.5,78l0,0C2.3,78,3,78.6,3,79.5l0,0C3,80.3,2.3,81,1.5,81l0,0
				C0.7,81,0,80.3,0,79.5z M0,69.7c0-0.8,0.7-1.5,1.5-1.5l0,0c0.8,0,1.5,0.7,1.5,1.5l0,0c0,0.8-0.7,1.5-1.5,1.5l0,0
				C0.7,71.2,0,70.5,0,69.7z M0,60c0-0.8,0.7-1.5,1.5-1.5l0,0C2.3,58.5,3,59.1,3,60l0,0c0,0.8-0.7,1.5-1.5,1.5l0,0
				C0.7,61.5,0,60.8,0,60z M0,50.2c0-0.8,0.7-1.5,1.5-1.5l0,0c0.8,0,1.5,0.7,1.5,1.5l0,0c0,0.8-0.7,1.5-1.5,1.5l0,0
				C0.7,51.7,0,51,0,50.2z M0,40.5C0,39.7,0.7,39,1.5,39l0,0C2.3,39,3,39.7,3,40.5l0,0C3,41.3,2.3,42,1.5,42l0,0
				C0.7,42,0,41.3,0,40.5z M0,30.7c0-0.8,0.7-1.5,1.5-1.5l0,0c0.8,0,1.5,0.7,1.5,1.5l0,0c0,0.8-0.7,1.5-1.5,1.5l0,0
				C0.7,32.2,0,31.5,0,30.7z M0,21c0-0.8,0.7-1.5,1.5-1.5l0,0C2.3,19.5,3,20.2,3,21l0,0c0,0.8-0.7,1.5-1.5,1.5l0,0
				C0.7,22.5,0,21.8,0,21z M0,11.2c0-0.8,0.7-1.5,1.5-1.5l0,0c0.8,0,1.5,0.7,1.5,1.5l0,0c0,0.8-0.7,1.5-1.5,1.5l0,0
				C0.7,12.7,0,12,0,11.2z"/>
		</g>
	</g>
	<g>
		<g>
			<linearGradient id="SVGID_3_" gradientUnits="userSpaceOnUse" x1="1.5" y1="98.8903" x2="1.5" y2="0.736">
				<stop  offset="0" style="stop-color:#FFFFFF"/>
				<stop  offset="1" style="stop-color:#FFFFFF;stop-opacity:0"/>
			</linearGradient>
			<path fill="url(#SVGID_3_)" d="M1.5,3C1.1,3,0.7,2.8,0.4,2.5C0.2,2.3,0,1.9,0,1.5c0-0.4,0.2-0.8,0.4-1.1C1-0.1,2-0.1,2.6,0.4
				C2.8,0.7,3,1.1,3,1.5c0,0.4-0.2,0.8-0.4,1.1C2.3,2.8,1.9,3,1.5,3z"/>
		</g>
	</g>
</g>
</svg>
