<?xml version="1.0" encoding="utf-8"?>
<!-- Generator: Adobe Illustrator 18.0.0, SVG Export Plug-In . SVG Version: 6.00 Build 0)  -->
<!DOCTYPE svg PUBLIC "-//W3C//DTD SVG 1.1//EN" "http://www.w3.org/Graphics/SVG/1.1/DTD/svg11.dtd">
<svg version="1.1" id="Layer_1" xmlns="http://www.w3.org/2000/svg" xmlns:xlink="http://www.w3.org/1999/xlink" x="0px" y="0px"
	 viewBox="0 0 39 39" enable-background="new 0 0 39 39" xml:space="preserve">
<g>
	<path fill="#C6C6C6" d="M19.5,39C8.7,39,0,30.3,0,19.5S8.7,0,19.5,0S39,8.7,39,19.5S30.3,39,19.5,39z M19.5,2C9.9,2,2,9.9,2,19.5
		S9.9,37,19.5,37S37,29.1,37,19.5S29.1,2,19.5,2z"/>
</g>
<g>
	<polygon fill="#C6C6C6" points="24.6,18.8 20.2,18.8 20.2,14.4 18.8,14.4 18.8,18.8 14.4,18.8 14.4,20.2 18.8,20.2 18.8,24.6 
		20.2,24.6 20.2,20.2 24.6,20.2 	"/>
</g>
</svg>
