<?xml version="1.0" encoding="utf-8"?>
<!-- Generator: Adobe Illustrator 18.0.0, SVG Export Plug-In . SVG Version: 6.00 Build 0)  -->
<!DOCTYPE svg PUBLIC "-//W3C//DTD SVG 1.1//EN" "http://www.w3.org/Graphics/SVG/1.1/DTD/svg11.dtd">
<svg version="1.1" id="Layer_1" xmlns="http://www.w3.org/2000/svg" xmlns:xlink="http://www.w3.org/1999/xlink" x="0px" y="0px"
	 viewBox="114.6 0.3 745.8 595.2" enable-background="new 114.6 0.3 745.8 595.2" xml:space="preserve">
<g>
	<path fill="#5C5C5C" d="M763.5,595.6H211.7c-59.1,0-97.1-32.1-97.1-82V82c0-12.5,10.3-22.8,22.8-22.8s22.8,10.3,22.8,22.8v431.6
		c0,31.2,32.1,36,51.4,36h551.5c11.9,0,51.4-2.6,51.4-36V82c0-12.5,10.3-22.8,22.8-22.8c12.5,0,22.8,10.3,22.8,22.8v431.6
		C860.6,562.8,821.7,595.6,763.5,595.6z"/>
</g>
<g>
	<path fill="#5C5C5C" d="M137.4,507.7c-12.5,0-22.8-10.3-22.8-22.8s10.3-22.8,22.8-22.8c58.5,0,103.2-17,142.5-31.8
		c68.1-25.7,132.8-50.1,221.6,38.6c9,9,9,23.5,0,32.5c-9,9-23.5,9-32.5,0c-67.8-67.8-107.5-52.7-173-28
		C255.4,488.4,204.3,507.7,137.4,507.7z"/>
</g>
<g>
	<path fill="#5C5C5C" d="M837.8,507.7c-66.9,0-118.1-19.3-158.9-34.7c-65.6-24.7-105.1-39.9-173,28c-9,9-23.5,9-32.5,0
		s-9-23.5,0-32.5c88.7-88.7,153.4-64.3,221.6-38.6c39.2,14.8,83.9,31.8,142.5,31.8c12.5,0,22.8,10.3,22.8,22.8
		C860.3,497.1,850.3,507.7,837.8,507.7z"/>
</g>
<g>
	<path fill="#5C5C5C" d="M137.4,101.9c-12.5,0-22.8-10.3-22.8-22.8s10.3-22.8,22.8-22.8c58.5,0,103.2-17,142.5-31.8
		C348.1-1.3,412.7-25.7,501.5,63c9,9,9,23.5,0,32.5c-9,9-23.5,9-32.5,0c-67.8-67.8-107.5-52.7-173-28
		C255.4,82.6,204.3,101.9,137.4,101.9z"/>
</g>
<g>
	<path fill="#5C5C5C" d="M837.8,101.9c-66.9,0-118.1-19.3-158.9-34.7c-65.6-24.7-105.1-39.9-173,28c-9,9-23.5,9-32.5,0
		s-9-23.5,0-32.5C562.2-26,626.8-1.6,695,24.1c39.2,14.8,83.9,31.8,142.5,31.8c12.5,0,22.8,10.3,22.8,22.8S850.3,101.9,837.8,101.9z
		"/>
</g>
<g>
	<path fill="#5C5C5C" d="M489.8,507.7c-12.5,0-22.8-10.3-22.8-22.8V78.4c0-12.5,10.3-22.8,22.8-22.8s22.8,10.3,22.8,22.8v406.2
		C512.7,497.4,502.4,507.7,489.8,507.7z"/>
</g>
</svg>
