<?xml version="1.0" encoding="utf-8"?>
<!-- Generator: Adobe Illustrator 18.0.0, SVG Export Plug-In . SVG Version: 6.00 Build 0)  -->
<!DOCTYPE svg PUBLIC "-//W3C//DTD SVG 1.1//EN" "http://www.w3.org/Graphics/SVG/1.1/DTD/svg11.dtd">
<svg version="1.1" id="Layer_1" xmlns="http://www.w3.org/2000/svg" xmlns:xlink="http://www.w3.org/1999/xlink" x="0px" y="0px"
	 viewBox="353.5 150.6 745.4 595" enable-background="new 353.5 150.6 745.4 595" xml:space="preserve">
<g>
	<path fill="#C6C6C6" d="M1002.1,745.6H450.6c-59.1,0-97.1-32.1-97.1-82V232.2c0-12.5,10.3-22.8,22.8-22.8s22.8,10.3,22.8,22.8
		v431.4c0,31.2,32.1,36,51.4,36h551.2c11.9,0,51.4-2.6,51.4-36V232.2c0-12.5,10.3-22.8,22.8-22.8c12.5,0,22.8,10.3,22.8,22.8v431.4
		C1099.2,712.8,1060.3,745.6,1002.1,745.6z"/>
</g>
<g>
	<path fill="#C6C6C6" d="M376.3,657.8c-12.5,0-22.8-10.3-22.8-22.8c0-12.5,10.3-22.8,22.8-22.8c58.5,0,103.2-17,142.4-31.8
		c68.1-25.7,132.7-50.1,221.5,38.6c9,9,9,23.5,0,32.5c-9,9-23.5,9-32.5,0c-67.8-67.8-107.4-52.7-172.9-28
		C494.3,638.5,443.2,657.8,376.3,657.8z"/>
</g>
<g>
	<path fill="#C6C6C6" d="M1076.4,657.8c-66.9,0-118-19.3-158.8-34.7c-65.6-24.7-105.1-39.9-172.9,28c-9,9-23.5,9-32.5,0
		c-9-9-9-23.5,0-32.5c88.7-88.7,153.3-64.3,221.5-38.6c39.2,14.8,83.9,31.8,142.4,31.8c12.5,0,22.8,10.3,22.8,22.8
		C1098.9,647.2,1088.9,657.8,1076.4,657.8z"/>
</g>
<g>
	<path fill="#C6C6C6" d="M376.3,252.2c-12.5,0-22.8-10.3-22.8-22.8c0-12.5,10.3-22.8,22.8-22.8c58.5,0,103.2-17,142.4-31.8
		c68.1-25.7,132.7-50.1,221.5,38.6c9,9,9,23.5,0,32.5s-23.5,9-32.5,0c-67.8-67.8-107.4-52.7-172.9-28
		C494.3,232.9,443.2,252.2,376.3,252.2z"/>
</g>
<g>
	<path fill="#C6C6C6" d="M1076.4,252.2c-66.9,0-118-19.3-158.8-34.7c-65.6-24.7-105.1-39.9-172.9,28c-9,9-23.5,9-32.5,0
		c-9-9-9-23.5,0-32.5c88.7-88.7,153.3-64.3,221.5-38.6c39.2,14.8,83.9,31.8,142.4,31.8c12.5,0,22.8,10.3,22.8,22.8
		S1088.9,252.2,1076.4,252.2z"/>
</g>
<g>
	<path fill="#C6C6C6" d="M728.6,657.8c-12.5,0-22.8-10.3-22.8-22.8V228.7c0-12.5,10.3-22.8,22.8-22.8s22.8,10.3,22.8,22.8v406
		C751.4,647.5,741.1,657.8,728.6,657.8z"/>
</g>
</svg>
