<?xml version="1.0" encoding="utf-8"?>
<!-- Generator: Adobe Illustrator 18.0.0, SVG Export Plug-In . SVG Version: 6.00 Build 0)  -->
<!DOCTYPE svg PUBLIC "-//W3C//DTD SVG 1.1//EN" "http://www.w3.org/Graphics/SVG/1.1/DTD/svg11.dtd">
<svg version="1.1" id="Layer_1" xmlns="http://www.w3.org/2000/svg" xmlns:xlink="http://www.w3.org/1999/xlink" x="0px" y="0px"
	 viewBox="374.1 176.1 519.8 595.3" enable-background="new 374.1 176.1 519.8 595.3" xml:space="preserve">
<path fill="#5C5C5C" d="M395.6,219.3c-11.8,0-21.5-9.7-21.5-21.5c0-11.8,9.7-21.5,21.5-21.5h476.5c11.8,0,21.5,9.7,21.5,21.5
	c0,12.1-9.5,21.5-21.5,21.5H395.6z"/>
<path fill="#5C5C5C" d="M571.9,445.8c-4,0-11.4-1.1-16.9-8.3L379.1,211.1c-3.6-4.6-5.2-10.4-4.4-16.3c0.7-5.7,3.7-10.6,8.2-14
	l0.1-0.1c3.9-3,8.4-4.6,13.4-4.6c6.7,0,12.9,3.1,17,8.4L589.3,411c3.6,4.6,5.2,10.4,4.4,16.3c-0.7,5.6-3.7,10.6-8.1,14
	C581,444.2,576.4,445.8,571.9,445.8z"/>
<path fill="#5C5C5C" d="M571.9,719.8c-11.8,0-21.5-9.7-21.5-21.5V423.9c0-11.8,9.7-21.5,21.5-21.5s21.5,9.7,21.5,21.5v274.2
	C593.4,710.1,583.7,719.8,571.9,719.8z"/>
<path fill="#5C5C5C" d="M691.8,771.4c-2.8,0-5.8-0.6-8.3-1.9L563,717.9c-11-4.9-16.1-17.7-11.3-28.5l0.1-0.2c3.3-7.9,11-13,19.7-13
	c3,0,6,0.6,8.9,1.9l120.3,51.6c5.4,2.4,9.5,6.7,11.5,12.1c2.2,5.4,2.1,11.2-0.3,16.5C708.3,766.3,700.5,771.4,691.8,771.4z"/>
<path fill="#5C5C5C" d="M691.8,771.4c-11.8,0-21.5-9.7-21.5-21.5V424c0-11.8,9.7-21.5,21.5-21.5c11.8,0,21.5,9.7,21.5,21.5v326.1
	c0.1,5.6-2,10.8-5.9,14.7C703.3,769,697.8,771.4,691.8,771.4z"/>
<path fill="#5C5C5C" d="M691.8,445.8c-3.6,0-8.9-0.8-13.5-4.7l-0.2-0.1c-4.5-3.6-7.3-8.8-7.8-14.5c-0.6-5.8,1.1-11.3,4.8-15.8
	l180.6-221.1c4.1-5.2,10.2-8,16.7-8c4.9,0,9.8,1.8,13.6,4.9l0.1,0.1c4.5,3.6,7.3,8.8,7.8,14.5c0.6,5.8-1.1,11.3-4.8,15.8
	L708.8,437.6C704.7,442.8,698.5,445.8,691.8,445.8z"/>
</svg>
