<?xml version="1.0" encoding="utf-8"?>
<!-- Generator: Adobe Illustrator 18.0.0, SVG Export Plug-In . SVG Version: 6.00 Build 0)  -->
<!DOCTYPE svg PUBLIC "-//W3C//DTD SVG 1.1//EN" "http://www.w3.org/Graphics/SVG/1.1/DTD/svg11.dtd">
<svg version="1.1" id="Layer_1" xmlns="http://www.w3.org/2000/svg" xmlns:xlink="http://www.w3.org/1999/xlink" x="0px" y="0px"
	 viewBox="466.4 146 595 595.1" enable-background="new 466.4 146 595 595.1" xml:space="preserve">
<g>
	<path fill="#5C5C5C" d="M763.8,581.1c-75.8,0-137.4-61.6-137.4-137.4s61.6-137.4,137.4-137.4S901.2,368,901.2,443.8
		S839.6,581.1,763.8,581.1z M763.8,352.2c-50.3,0-91.6,41-91.6,91.6s41,91.6,91.6,91.6c50.6,0,91.6-41,91.6-91.6
		S814.5,352.2,763.8,352.2z"/>
</g>
<g>
	<g>
		<path fill="#5C5C5C" d="M764.2,741.1c-13.2,0-26.4-1-39.3-2.6c-8.7-1.3-16.1-7.4-19-15.8c-6.4-19.7-21-35.8-40-43.5
			c-19-7.7-41-7.1-59,2.6c-8.1,4.2-17.4,3.2-24.5-2.3c-20.6-16.1-39.3-34.5-54.8-55.1c-5.5-7.1-6.1-16.8-2.3-24.5
			c9.7-18.7,10.6-40,2.9-59c-7.7-18.7-23.5-33.2-43.5-39.7c-8.4-2.6-14.5-10-15.8-19c-3.2-25.8-3.2-51.9,0-77.7
			c1.3-8.7,7.4-16.1,15.8-19c19.7-6.4,35.8-21,43.5-40c8.1-19,7.1-40.6-2.6-59c-4.2-8.1-3.2-17.4,2.3-24.5
			c16.1-20.6,34.5-39.3,55.1-54.8c7.1-5.5,16.4-6.1,24.5-2.3c18.4,9.7,40,10.6,59,2.9c18.7-7.7,33.2-23.5,39.7-43.5
			c2.6-8.4,10-14.5,19-15.8c25.5-3.2,51.9-3.2,77.7,0c8.7,1.3,16.1,7.4,19,15.8c6.4,19.7,21,35.8,40,43.5c19,8.1,41,7.1,59-2.6
			c8.1-4.2,17.4-3.2,24.5,2.3c20.6,16.1,39.3,34.5,54.8,55.1c5.5,7.1,6.1,16.8,2.3,24.5c-9.7,18.7-10.6,40-2.9,59
			c7.7,18.7,23.5,33.2,43.5,39.7c8.4,2.6,14.5,10,15.8,19c3.2,25.8,3.2,51.9,0,77.7c-1.3,8.7-7.4,16.1-15.8,19
			c-19.7,6.4-35.8,21-43.5,40c-8.1,19-7.1,40.6,2.6,59c4.2,8.1,3.2,17.4-2.3,24.5c-16.1,20.6-34.5,39.3-55.1,54.8
			c-7.1,5.5-16.4,6.1-24.5,2.3c-18.4-9.4-40-10.6-59-2.9c-18.7,7.7-33.2,23.5-39.7,43.5c-2.6,8.4-10,14.5-19,15.8
			C790,740.4,777.1,741.1,764.2,741.1z M744.2,694.3c13.2,1,26.1,1,39.3,0c12.3-26.1,33.9-46.8,60.3-57.7
			c26.4-11,56.4-11.3,83.5-1.6c10-8.4,19.3-17.7,27.7-27.7c-9.7-27.1-9-56.8,2.3-83.5c11.3-26.8,31.9-48.4,57.7-60.6
			c1-13.2,1-26.1,0-39.3c-26.1-12.3-46.8-33.5-57.7-60.3c-11-26.4-11.3-56.1-1.6-83.5c-8.4-10-17.7-19.3-27.7-27.7
			c-27.1,9.7-57.1,8.7-83.5-2.3c-26.8-11.3-48.4-31.9-60.6-57.7c-13.2-1-26.1-1-39.3,0c-12.3,26.1-33.9,46.8-60.3,57.7
			c-26.4,11-56.4,11.3-83.5,1.6c-10,8.4-19.3,17.7-27.7,27.7c9.7,27.1,9,56.8-2.3,83.5c-11.3,26.8-31.9,48.4-57.7,60.6
			c-1,13.2-1,26.1,0,39.3c26.1,12.3,46.8,33.5,57.7,60.3c11,26.4,11.3,56.1,1.6,83.5c8.4,10,17.7,19.3,27.7,27.7
			c27.1-9.7,57.1-8.7,83.5,2.3C710.3,647.6,731.9,668.2,744.2,694.3z"/>
	</g>
</g>
</svg>
