<?xml version="1.0" encoding="utf-8"?>
<!-- Generator: Adobe Illustrator 18.0.0, SVG Export Plug-In . SVG Version: 6.00 Build 0)  -->
<!DOCTYPE svg PUBLIC "-//W3C//DTD SVG 1.1//EN" "http://www.w3.org/Graphics/SVG/1.1/DTD/svg11.dtd">
<svg version="1.1" id="Layer_1" xmlns="http://www.w3.org/2000/svg" xmlns:xlink="http://www.w3.org/1999/xlink" x="0px" y="0px"
	 viewBox="0 0 152.6 138" enable-background="new 0 0 152.6 138" xml:space="preserve">
<g>
	<path fill="#575756" d="M19.2,138C8.6,138,0,129.4,0,118.8V95.4c0-10.6,8.6-19.2,19.2-19.2c10.6,0,19.2,8.6,19.2,19.2v23.5
		C38.3,129.4,29.7,138,19.2,138z M19.2,84.8c-5.8,0-10.5,4.7-10.5,10.6v23.5c0,5.8,4.7,10.6,10.5,10.6c5.8,0,10.6-4.7,10.6-10.6
		V95.4C29.7,89.5,25,84.8,19.2,84.8z"/>
</g>
<g>
	<path fill="#575756" d="M133.5,138c-10.6,0-19.2-8.6-19.2-19.2V57.3c0-10.6,8.6-19.2,19.2-19.2c10.6,0,19.2,8.6,19.2,19.2v61.6
		C152.6,129.4,144,138,133.5,138z M133.5,46.7c-5.8,0-10.5,4.7-10.5,10.6v61.6c0,5.8,4.7,10.6,10.5,10.6c5.8,0,10.6-4.7,10.6-10.6
		V57.3C144,51.5,139.3,46.7,133.5,46.7z"/>
</g>
<g>
	<path fill="#575756" d="M76.3,138c-10.6,0-19.2-8.6-19.2-19.2V19.2C57.1,8.6,65.7,0,76.3,0c10.6,0,19.2,8.6,19.2,19.2v99.7
		C95.5,129.4,86.9,138,76.3,138z M76.3,8.6c-5.8,0-10.5,4.7-10.5,10.6v99.7c0,5.8,4.7,10.6,10.5,10.6c5.8,0,10.6-4.7,10.6-10.6V19.2
		C86.9,13.4,82.1,8.6,76.3,8.6z"/>
</g>
</svg>
