<?xml version="1.0" encoding="utf-8"?>
<!-- Generator: Adobe Illustrator 18.0.0, SVG Export Plug-In . SVG Version: 6.00 Build 0)  -->
<!DOCTYPE svg PUBLIC "-//W3C//DTD SVG 1.1//EN" "http://www.w3.org/Graphics/SVG/1.1/DTD/svg11.dtd">
<svg version="1.1" id="Layer_1" xmlns="http://www.w3.org/2000/svg" xmlns:xlink="http://www.w3.org/1999/xlink" x="0px" y="0px"
	 viewBox="0 0 30.2 36.5" enable-background="new 0 0 30.2 36.5" xml:space="preserve">
<g id="background">
	<path fill="#303031" stroke="#303031" stroke-width="10" stroke-miterlimit="10" d="M6,27.7V8.8c0-2.3,2.7-3.7,4.5-2.3L23.1,16
		c1.5,1.1,1.5,3.4,0,4.5l-12.5,9.4C8.7,31.3,6,30,6,27.7z"/>
	<path fill="#303031" stroke="#303031" stroke-width="10" stroke-miterlimit="10" d="M8.8,31.5c-2.1,0-3.8-1.7-3.8-3.8V8.8
		C5,6.7,6.7,5,8.8,5c0.8,0,1.6,0.3,2.3,0.8l12.5,9.4c1,0.7,1.5,1.8,1.5,3.1s-0.6,2.3-1.5,3.1l-12.5,9.4C10.5,31.2,9.7,31.5,8.8,31.5
		z M8.8,7C8,7,7,7.7,7,8.8v18.8c0,1.1,1,1.8,1.8,1.8c0.4,0,0.8-0.1,1.1-0.4l12.5-9.4c0.5-0.3,0.7-0.9,0.7-1.5s-0.3-1.1-0.7-1.5
		L9.9,7.4C9.6,7.1,9.2,7,8.8,7z"/>
</g>
<path id="play_x5F_light" fill="#F6F6F6" d="M6,27.7V8.8c0-2.3,2.7-3.7,4.5-2.3L23.1,16c1.5,1.1,1.5,3.4,0,4.5l-12.5,9.4
	C8.7,31.3,6,30,6,27.7z"/>
</svg>
