<?xml version="1.0" encoding="utf-8"?>
<!-- Generator: Adobe Illustrator 18.0.0, SVG Export Plug-In . SVG Version: 6.00 Build 0)  -->
<!DOCTYPE svg PUBLIC "-//W3C//DTD SVG 1.1//EN" "http://www.w3.org/Graphics/SVG/1.1/DTD/svg11.dtd">
<svg version="1.1" id="Layer_1" xmlns="http://www.w3.org/2000/svg" xmlns:xlink="http://www.w3.org/1999/xlink" x="0px" y="0px"
	 viewBox="0 0 120.8 138" enable-background="new 0 0 120.8 138" xml:space="preserve">
<g>
	<path fill="#575756" d="M60.4,74c-0.6,0-1.3-0.2-1.8-0.5L1.8,40.1C0.7,39.4,0,38.2,0,37c0-1.3,0.7-2.5,1.8-3.1L58.6,0.5
		C59.1,0.2,59.8,0,60.4,0s1.3,0.2,1.8,0.5l56.8,33.4c1.1,0.6,1.8,1.8,1.8,3.1c0,1.3-0.7,2.5-1.8,3.1L62.2,73.5
		C61.7,73.8,61.1,74,60.4,74z M10.7,37l49.7,29.2L110.1,37L60.4,7.8L10.7,37z"/>
</g>
<g>
	<path fill="#575756" d="M60.4,138c-0.6,0-1.3-0.2-1.8-0.5L1.8,104.1C0.7,103.4,0,102.2,0,101V37c0-1.3,0.7-2.5,1.8-3.1
		c0.5-0.3,1.2-0.5,1.8-0.5c0.6,0,1.3,0.2,1.8,0.5l56.8,33.4c1.1,0.6,1.8,1.8,1.8,3.1v64c0,1.3-0.7,2.5-1.8,3.1
		C61.7,137.8,61,138,60.4,138z M7.2,98.9l49.6,29.2V72.4L7.2,43.3V98.9z"/>
</g>
<g>
	<path fill="#575756" d="M60.4,138c-0.6,0-1.2-0.2-1.8-0.5c-1.1-0.6-1.8-1.8-1.8-3.1v-64c0-1.3,0.7-2.5,1.8-3.1l56.8-33.4
		c0.5-0.3,1.2-0.5,1.8-0.5c0.6,0,1.2,0.2,1.8,0.5c1.1,0.6,1.8,1.8,1.8,3.1v64c0,1.3-0.7,2.5-1.8,3.1l-56.8,33.4
		C61.7,137.8,61.1,138,60.4,138z M64,72.4v55.6l49.6-29.2V43.3L64,72.4z"/>
</g>
</svg>
