<?xml version="1.0" encoding="utf-8"?>
<!-- Generator: Adobe Illustrator 18.0.0, SVG Export Plug-In . SVG Version: 6.00 Build 0)  -->
<!DOCTYPE svg PUBLIC "-//W3C//DTD SVG 1.1//EN" "http://www.w3.org/Graphics/SVG/1.1/DTD/svg11.dtd">
<svg version="1.1" id="Layer_1" xmlns="http://www.w3.org/2000/svg" xmlns:xlink="http://www.w3.org/1999/xlink" x="0px" y="0px"
	 viewBox="348.2 167.4 147.4 143.4" enable-background="new 348.2 167.4 147.4 143.4" xml:space="preserve">
<g>
	<path fill="#5C5C5C" d="M472.3,310.8c-12.8,0-23.3-10.4-23.3-23.3c0-12.8,10.4-23.3,23.3-23.3c12.8,0,23.3,10.4,23.3,23.3
		C495.6,300.3,485.2,310.8,472.3,310.8z M472.3,278.5c-5,0-9,4-9,9c0,5,4,9,9,9c5,0,9-4,9-9C481.3,282.5,477.3,278.5,472.3,278.5z"
		/>
</g>
<g>
	<path fill="#5C5C5C" d="M371.5,262.4c-12.8,0-23.3-10.4-23.3-23.3c0-12.8,10.4-23.3,23.3-23.3s23.3,10.4,23.3,23.3
		C394.8,251.9,384.3,262.4,371.5,262.4z M371.5,230.1c-5,0-9,4-9,9c0,5,4,9,9,9s9-4,9-9C380.5,234.1,376.5,230.1,371.5,230.1z"/>
</g>
<g>
	<path fill="#5C5C5C" d="M472.3,214c-12.8,0-23.3-10.4-23.3-23.3c0-12.8,10.4-23.3,23.3-23.3c12.8,0,23.3,10.4,23.3,23.3
		C495.6,203.5,485.2,214,472.3,214z M472.3,181.7c-5,0-9,4-9,9s4,9,9,9c5,0,9-4,9-9S477.3,181.7,472.3,181.7z"/>
</g>
<g>
	<path fill="#5C5C5C" d="M457.3,288.7c-1,0-2-0.2-2.9-0.6l-73-32.6c-3.6-1.6-5.2-5.8-3.6-9.4c1.6-3.6,5.8-5.2,9.4-3.6l73,32.6
		c3.6,1.6,5.2,5.8,3.6,9.4C462.6,287.1,460,288.7,457.3,288.7z"/>
</g>
<g>
	<path fill="#5C5C5C" d="M384.3,236.4c-2.7,0-5.3-1.6-6.5-4.2c-1.6-3.6,0-7.8,3.6-9.4l73-32.6c3.6-1.6,7.8,0,9.4,3.6
		c1.6,3.6,0,7.8-3.6,9.4l-73,32.6C386.3,236.2,385.3,236.4,384.3,236.4z"/>
</g>
</svg>
