<?xml version="1.0" encoding="utf-8"?>
<!-- Generator: Adobe Illustrator 18.0.0, SVG Export Plug-In . SVG Version: 6.00 Build 0)  -->
<!DOCTYPE svg PUBLIC "-//W3C//DTD SVG 1.1//EN" "http://www.w3.org/Graphics/SVG/1.1/DTD/svg11.dtd">
<svg version="1.1" id="Layer_1" xmlns="http://www.w3.org/2000/svg" xmlns:xlink="http://www.w3.org/1999/xlink" x="0px" y="0px"
	 viewBox="463.2 167.4 611.9 595.3" enable-background="new 463.2 167.4 611.9 595.3" xml:space="preserve">
<g>
	<path fill="#C6C6C6" d="M978.4,762.7c-53.1,0-96.7-43.2-96.7-96.7c0-53.1,43.2-96.7,96.7-96.7c53.1,0,96.7,43.2,96.7,96.7
		C1075.1,719.1,1031.9,762.7,978.4,762.7z M978.4,628.6c-20.8,0-37.4,16.6-37.4,37.4s16.6,37.4,37.4,37.4s37.4-16.6,37.4-37.4
		S999.1,628.6,978.4,628.6z"/>
</g>
<g>
	<path fill="#C6C6C6" d="M559.9,561.8c-53.1,0-96.7-43.2-96.7-96.7c0-53.1,43.2-96.7,96.7-96.7s96.7,43.2,96.7,96.7
		C656.6,518.2,613.1,561.8,559.9,561.8z M559.9,427.7c-20.8,0-37.4,16.6-37.4,37.4c0,20.8,16.6,37.4,37.4,37.4s37.4-16.6,37.4-37.4
		C597.3,444.3,580.7,427.7,559.9,427.7z"/>
</g>
<g>
	<path fill="#C6C6C6" d="M978.4,360.8c-53.1,0-96.7-43.2-96.7-96.7c0-53.1,43.2-96.7,96.7-96.7c53.1,0,96.7,43.2,96.7,96.7
		C1075.1,317.3,1031.9,360.8,978.4,360.8z M978.4,226.8c-20.8,0-37.4,16.6-37.4,37.4s16.6,37.4,37.4,37.4s37.4-16.6,37.4-37.4
		S999.1,226.8,978.4,226.8z"/>
</g>
<g>
	<path fill="#C6C6C6" d="M916.1,670.9c-4.2,0-8.3-0.8-12-2.5L601,533.1c-14.9-6.6-21.6-24.1-14.9-39c6.6-14.9,24.1-21.6,39-14.9
		l303,135.3c14.9,6.6,21.6,24.1,14.9,39C938.1,664.3,927.3,670.9,916.1,670.9z"/>
</g>
<g>
	<path fill="#C6C6C6" d="M613.1,453.8c-11.2,0-22-6.6-27-17.4c-6.6-14.9,0-32.4,14.9-39l303-135.3c14.9-6.6,32.4,0,39,14.9
		c6.6,14.9,0,32.4-14.9,39l-303,135.3C621.4,453,617.2,453.8,613.1,453.8z"/>
</g>
</svg>
