<?xml version="1.0" encoding="utf-8"?>
<!-- Generator: Adobe Illustrator 18.0.0, SVG Export Plug-In . SVG Version: 6.00 Build 0)  -->
<!DOCTYPE svg PUBLIC "-//W3C//DTD SVG 1.1//EN" "http://www.w3.org/Graphics/SVG/1.1/DTD/svg11.dtd">
<svg version="1.1" id="Layer_1" xmlns="http://www.w3.org/2000/svg" xmlns:xlink="http://www.w3.org/1999/xlink" x="0px" y="0px"
	 viewBox="0 0 104.7 148.9" enable-background="new 0 0 104.7 148.9" xml:space="preserve">
<g>
	<path fill="#575756" d="M49.5,146.4c-0.5-0.5-13.2-11.7-25.6-29.1C13,102,0,78.2,0,52.3C0,23.5,23.5,0,52.3,0s52.3,23.5,52.3,52.3
		c0,26.4-13,50.1-24,65.4c-12.3,17.2-25,28.2-25.6,28.7l-2.8,2.4L49.5,146.4z M52.3,8.6C28.2,8.6,8.6,28.2,8.6,52.3
		c0,36.9,29.2,70.4,41.7,83l2,2l2-2C66.9,122.9,96,89.9,96,52.3c0-11.7-4.5-22.6-12.8-30.9C75,13.2,64,8.6,52.3,8.6z"/>
</g>
<g>
	<path fill="#575756" d="M52.3,68.6c-10,0-18.1-8.1-18.1-18.1c0-10,8.1-18.1,18.1-18.1c10,0,18.1,8.1,18.1,18.1
		C70.4,60.5,62.3,68.6,52.3,68.6z M52.3,41.1c-5.2,0-9.4,4.2-9.4,9.4c0,5.2,4.2,9.4,9.4,9.4c5.2,0,9.4-4.2,9.4-9.4
		C61.8,45.3,57.5,41.1,52.3,41.1z"/>
</g>
</svg>
