<?xml version="1.0" encoding="utf-8"?>
<!-- Generator: Adobe Illustrator 18.0.0, SVG Export Plug-In . SVG Version: 6.00 Build 0)  -->
<!DOCTYPE svg PUBLIC "-//W3C//DTD SVG 1.1//EN" "http://www.w3.org/Graphics/SVG/1.1/DTD/svg11.dtd">
<svg version="1.1" id="Layer_1" xmlns="http://www.w3.org/2000/svg" xmlns:xlink="http://www.w3.org/1999/xlink" x="0px" y="0px"
	 viewBox="0 0 67.1 67.1" enable-background="new 0 0 67.1 67.1" xml:space="preserve">
<g>
	<path fill="#C6C6C6" d="M33.5,67.1C15,67.1,0,52,0,33.5S15,0,33.5,0s33.5,15,33.5,33.5S52,67.1,33.5,67.1z M33.5,2
		C16.1,2,2,16.1,2,33.5c0,17.4,14.1,31.5,31.5,31.5s31.5-14.1,31.5-31.5C65.1,16.1,50.9,2,33.5,2z"/>
</g>
<g>
	<g>
		<path fill="#C6C6C6" d="M32,52.4h-8.9V14.7H32V52.4z M25.1,50.4H30V16.7h-4.9V50.4z"/>
	</g>
	<g>
		<path fill="#C6C6C6" d="M44,52.4h-8.9V14.7H44V52.4z M37.1,50.4H42V16.7h-4.9V50.4z"/>
	</g>
</g>
</svg>
