<?xml version="1.0" encoding="utf-8"?>
<!-- Generator: Adobe Illustrator 18.0.0, SVG Export Plug-In . SVG Version: 6.00 Build 0)  -->
<!DOCTYPE svg PUBLIC "-//W3C//DTD SVG 1.1//EN" "http://www.w3.org/Graphics/SVG/1.1/DTD/svg11.dtd">
<svg version="1.1" id="Layer_1" xmlns="http://www.w3.org/2000/svg" xmlns:xlink="http://www.w3.org/1999/xlink" x="0px" y="0px"
	 viewBox="305.4 150.6 232 185.2" enable-background="new 305.4 150.6 232 185.2" xml:space="preserve">
<g>
	<path fill="#AEA8A3" d="M507.2,335.7H335.6c-18.4,0-30.2-10-30.2-25.5V176c0-3.9,3.2-7.1,7.1-7.1s7.1,3.2,7.1,7.1v134.2
		c0,9.7,10,11.2,16,11.2h171.5c3.7,0,16-0.8,16-11.2V176c0-3.9,3.2-7.1,7.1-7.1c3.9,0,7.1,3.2,7.1,7.1v134.2
		C537.4,325.5,525.3,335.7,507.2,335.7z"/>
</g>
<g>
	<path fill="#AEA8A3" d="M312.5,308.4c-3.9,0-7.1-3.2-7.1-7.1s3.2-7.1,7.1-7.1c18.2,0,32.1-5.3,44.3-9.9c21.2-8,41.3-15.6,68.9,12
		c2.8,2.8,2.8,7.3,0,10.1c-2.8,2.8-7.3,2.8-10.1,0c-21.1-21.1-33.4-16.4-53.8-8.7C349.2,302.4,333.3,308.4,312.5,308.4z"/>
</g>
<g>
	<path fill="#AEA8A3" d="M530.3,308.4c-20.8,0-36.7-6-49.4-10.8c-20.4-7.7-32.7-12.4-53.8,8.7c-2.8,2.8-7.3,2.8-10.1,0
		c-2.8-2.8-2.8-7.3,0-10.1c27.6-27.6,47.7-20,68.9-12c12.2,4.6,26.1,9.9,44.3,9.9c3.9,0,7.1,3.2,7.1,7.1S534.2,308.4,530.3,308.4z"
		/>
</g>
<g>
	<path fill="#AEA8A3" d="M312.5,182.2c-3.9,0-7.1-3.2-7.1-7.1c0-3.9,3.2-7.1,7.1-7.1c18.2,0,32.1-5.3,44.3-9.9
		c21.2-8,41.3-15.6,68.9,12c2.8,2.8,2.8,7.3,0,10.1c-2.8,2.8-7.3,2.8-10.1,0c-21.1-21.1-33.4-16.4-53.8-8.7
		C349.2,176.2,333.3,182.2,312.5,182.2z"/>
</g>
<g>
	<path fill="#AEA8A3" d="M530.3,182.2c-20.8,0-36.7-6-49.4-10.8c-20.4-7.7-32.7-12.4-53.8,8.7c-2.8,2.8-7.3,2.8-10.1,0
		c-2.8-2.8-2.8-7.3,0-10.1c27.6-27.6,47.7-20,68.9-12c12.2,4.6,26.1,9.9,44.3,9.9c3.9,0,7.1,3.2,7.1,7.1S534.2,182.2,530.3,182.2z"
		/>
</g>
<g>
	<path fill="#AEA8A3" d="M422.1,308.4c-3.9,0-7.1-3.2-7.1-7.1V174.9c0-3.9,3.2-7.1,7.1-7.1c3.9,0,7.1,3.2,7.1,7.1v126.3
		C429.2,305.2,426,308.4,422.1,308.4z"/>
</g>
</svg>
