<?xml version="1.0" encoding="utf-8"?>
<!-- Generator: Adobe Illustrator 18.0.0, SVG Export Plug-In . SVG Version: 6.00 Build 0)  -->
<!DOCTYPE svg PUBLIC "-//W3C//DTD SVG 1.1//EN" "http://www.w3.org/Graphics/SVG/1.1/DTD/svg11.dtd">
<svg version="1.1" id="Layer_1" xmlns="http://www.w3.org/2000/svg" xmlns:xlink="http://www.w3.org/1999/xlink" x="0px" y="0px"
	 viewBox="66.5 0.3 745.4 595" enable-background="new 66.5 0.3 745.4 595" xml:space="preserve">
<g>
	<path fill="#303030" d="M715.1,595.3H163.6c-59.1,0-97.1-32.1-97.1-82V82c0-12.5,10.3-22.8,22.8-22.8s22.8,10.3,22.8,22.8v431.4
		c0,31.2,32.1,36,51.4,36h551.2c11.9,0,51.4-2.6,51.4-36V82c0-12.5,10.3-22.8,22.8-22.8c12.5,0,22.8,10.3,22.8,22.8v431.4
		C812.2,562.5,773.3,595.3,715.1,595.3z"/>
</g>
<g>
	<path fill="#303030" d="M89.3,507.5c-12.5,0-22.8-10.3-22.8-22.8c0-12.5,10.3-22.8,22.8-22.8c58.5,0,103.2-17,142.4-31.8
		c68.1-25.7,132.7-50.1,221.5,38.6c9,9,9,23.5,0,32.5c-9,9-23.5,9-32.5,0c-67.8-67.8-107.4-52.7-172.9-28
		C207.3,488.2,156.2,507.5,89.3,507.5z"/>
</g>
<g>
	<path fill="#303030" d="M789.4,507.5c-66.9,0-118-19.3-158.8-34.7c-65.6-24.7-105.1-39.9-172.9,28c-9,9-23.5,9-32.5,0
		c-9-9-9-23.5,0-32.5c88.7-88.7,153.3-64.3,221.5-38.6c39.2,14.8,83.9,31.8,142.4,31.8c12.5,0,22.8,10.3,22.8,22.8
		C811.9,496.9,801.9,507.5,789.4,507.5z"/>
</g>
<g>
	<path fill="#303030" d="M89.3,101.9c-12.5,0-22.8-10.3-22.8-22.8c0-12.5,10.3-22.8,22.8-22.8c58.5,0,103.2-17,142.4-31.8
		C299.9-1.3,364.5-25.7,453.2,63c9,9,9,23.5,0,32.5s-23.5,9-32.5,0c-67.8-67.8-107.4-52.7-172.9-28
		C207.3,82.6,156.2,101.9,89.3,101.9z"/>
</g>
<g>
	<path fill="#303030" d="M789.4,101.9c-66.9,0-118-19.3-158.8-34.7c-65.6-24.7-105.1-39.9-172.9,28c-9,9-23.5,9-32.5,0
		c-9-9-9-23.5,0-32.5C513.9-26,578.5-1.6,646.7,24.1c39.2,14.8,83.9,31.8,142.4,31.8c12.5,0,22.8,10.3,22.8,22.8
		S801.9,101.9,789.4,101.9z"/>
</g>
<g>
	<path fill="#303030" d="M441.6,507.5c-12.5,0-22.8-10.3-22.8-22.8V78.4c0-12.5,10.3-22.8,22.8-22.8s22.8,10.3,22.8,22.8v406
		C464.4,497.2,454.1,507.5,441.6,507.5z"/>
</g>
</svg>
