<?xml version="1.0" encoding="utf-8"?>
<!-- Generator: Adobe Illustrator 18.0.0, SVG Export Plug-In . SVG Version: 6.00 Build 0)  -->
<!DOCTYPE svg PUBLIC "-//W3C//DTD SVG 1.1//EN" "http://www.w3.org/Graphics/SVG/1.1/DTD/svg11.dtd">
<svg version="1.1" id="Layer_1" xmlns="http://www.w3.org/2000/svg" xmlns:xlink="http://www.w3.org/1999/xlink" x="0px" y="0px"
	 viewBox="363.6 167.3 126 143.7" enable-background="new 363.6 167.3 126 143.7" xml:space="preserve">
<g>
	<path fill="#AEA8A3" d="M482.4,181.6H370.7c-3.9,0-7.1-3.2-7.1-7.1s3.2-7.1,7.1-7.1h111.7c3.9,0,7.1,3.2,7.1,7.1
		S486.4,181.6,482.4,181.6z"/>
</g>
<g>
	<path fill="#AEA8A3" d="M412,234.7c-2.1,0-4.2-0.9-5.6-2.8l-41.2-53c-2.4-3.1-1.9-7.6,1.3-10c3.1-2.4,7.6-1.9,10,1.3l41.2,53
		c2.4,3.1,1.9,7.6-1.3,10C415,234.2,413.5,234.7,412,234.7z"/>
</g>
<g>
	<path fill="#AEA8A3" d="M412,298.9c-3.9,0-7.1-3.2-7.1-7.1v-64.3c0-3.9,3.2-7.1,7.1-7.1c3.9,0,7.1,3.2,7.1,7.1v64.3
		C419.1,295.7,415.9,298.9,412,298.9z"/>
</g>
<g>
	<path fill="#AEA8A3" d="M440.1,311c-0.9,0-1.9-0.2-2.8-0.6l-28.2-12.1c-3.6-1.6-5.3-5.8-3.7-9.4c1.5-3.6,5.7-5.3,9.4-3.7l28.2,12.1
		c3.6,1.6,5.3,5.8,3.7,9.4C445.5,309.4,442.9,311,440.1,311z"/>
</g>
<g>
	<path fill="#AEA8A3" d="M440.1,311c-3.9,0-7.1-3.2-7.1-7.1v-76.4c0-3.9,3.2-7.1,7.1-7.1c3.9,0,7.1,3.2,7.1,7.1v76.4
		C447.3,307.8,444.1,311,440.1,311z"/>
</g>
<g>
	<path fill="#AEA8A3" d="M440.1,234.7c-1.6,0-3.2-0.5-4.5-1.6c-3.1-2.5-3.5-7-1-10l42.3-51.8c2.5-3.1,7-3.5,10-1c3.1,2.5,3.5,7,1,10
		L445.7,232C444.3,233.8,442.2,234.7,440.1,234.7z"/>
</g>
</svg>
