<?xml version="1.0" encoding="utf-8"?>
<!-- Generator: Adobe Illustrator 18.0.0, SVG Export Plug-In . SVG Version: 6.00 Build 0)  -->
<!DOCTYPE svg PUBLIC "-//W3C//DTD SVG 1.1//EN" "http://www.w3.org/Graphics/SVG/1.1/DTD/svg11.dtd">
<svg version="1.1" id="Layer_1" xmlns="http://www.w3.org/2000/svg" xmlns:xlink="http://www.w3.org/1999/xlink" x="0px" y="0px"
	 viewBox="693.1 176.1 519.9 595.4" enable-background="new 693.1 176.1 519.9 595.4" xml:space="preserve">
<path fill="#303030" d="M714.6,219.3c-11.8,0-21.5-9.7-21.5-21.5s9.7-21.5,21.5-21.5h476.6c11.8,0,21.5,9.7,21.5,21.5
	c0,12.1-9.5,21.5-21.5,21.5H714.6z"/>
<path fill="#303030" d="M890.9,445.9c-4,0-11.4-1.1-16.9-8.3L698.1,211.1c-3.6-4.6-5.2-10.4-4.4-16.3c0.7-5.7,3.7-10.6,8.2-14
	l0.1-0.1c3.9-3,8.4-4.6,13.4-4.6c6.7,0,12.9,3.1,17,8.4L908.3,411c3.6,4.6,5.2,10.4,4.4,16.3c-0.7,5.6-3.7,10.6-8.1,14
	C900,444.3,895.4,445.9,890.9,445.9z"/>
<path fill="#303030" d="M890.9,719.9c-11.8,0-21.5-9.7-21.5-21.5V423.9c0-11.8,9.7-21.5,21.5-21.5c11.8,0,21.5,9.7,21.5,21.5v274.3
	C912.4,710.2,902.7,719.9,890.9,719.9z"/>
<path fill="#303030" d="M1010.8,771.5c-2.8,0-5.8-0.6-8.3-1.9L882,718c-11-4.9-16.1-17.7-11.3-28.5l0.1-0.2c3.3-7.9,11-13,19.7-13
	c3,0,6,0.6,8.9,1.9l120.3,51.6c5.4,2.4,9.5,6.7,11.5,12.1c2.2,5.4,2.1,11.2-0.3,16.5C1027.3,766.4,1019.5,771.5,1010.8,771.5z"/>
<path fill="#303030" d="M1010.8,771.5c-11.8,0-21.5-9.7-21.5-21.5v-326c0-11.8,9.7-21.5,21.5-21.5c11.8,0,21.5,9.7,21.5,21.5v326.2
	c0.1,5.6-2,10.8-5.9,14.7C1022.3,769.1,1016.8,771.5,1010.8,771.5z"/>
<path fill="#303030" d="M1010.8,445.9c-3.6,0-8.9-0.8-13.5-4.7l-0.2-0.1c-4.5-3.6-7.3-8.8-7.8-14.5c-0.6-5.8,1.1-11.3,4.8-15.8
	l180.6-221.1c4.1-5.2,10.2-8,16.7-8c4.9,0,9.8,1.8,13.6,4.9l0.1,0.1c4.5,3.6,7.3,8.8,7.8,14.5c0.6,5.8-1.1,11.3-4.8,15.8
	l-180.3,220.7C1023.7,442.9,1017.5,445.9,1010.8,445.9z"/>
</svg>
