<?xml version="1.0" encoding="utf-8"?>
<!-- Generator: Adobe Illustrator 18.0.0, SVG Export Plug-In . SVG Version: 6.00 Build 0)  -->
<!DOCTYPE svg PUBLIC "-//W3C//DTD SVG 1.1//EN" "http://www.w3.org/Graphics/SVG/1.1/DTD/svg11.dtd">
<svg version="1.1" id="Layer_1" xmlns="http://www.w3.org/2000/svg" xmlns:xlink="http://www.w3.org/1999/xlink" x="0px" y="0px"
	 viewBox="532.1 176.2 504.7 577.9" enable-background="new 532.1 176.2 504.7 577.9" xml:space="preserve">
<path fill="#AEA8A3" d="M553,218c-11.5,0-20.9-9.4-20.9-20.9s9.4-20.9,20.9-20.9h462.7c11.5,0,20.9,9.4,20.9,20.9
	c0,11.7-9.2,20.9-20.9,20.9H553z"/>
<path fill="#AEA8A3" d="M724.1,438c-3.9,0-11.1-1.1-16.4-8.1L536.9,210.1c-3.5-4.5-5-10.1-4.3-15.8c0.7-5.5,3.6-10.3,8-13.6l0.1-0.1
	c3.8-2.9,8.2-4.5,13-4.5c6.5,0,12.5,3,16.5,8.2L741,404.1c3.5,4.5,5,10.1,4.3,15.8c-0.7,5.4-3.6,10.3-7.9,13.6
	C733,436.5,728.5,438,724.1,438z"/>
<path fill="#AEA8A3" d="M724.1,704c-11.5,0-20.9-9.4-20.9-20.9V416.7c0-11.5,9.4-20.9,20.9-20.9s20.9,9.4,20.9,20.9V683
	C745,694.6,735.6,704,724.1,704z"/>
<path fill="#AEA8A3" d="M840.5,754.1c-2.7,0-5.6-0.6-8.1-1.8l-116.9-50.1c-10.7-4.8-15.6-17.2-11-27.7l0.1-0.2
	c3.2-7.7,10.7-12.6,19.1-12.6c2.9,0,5.8,0.6,8.6,1.8l116.8,50.1c5.2,2.3,9.2,6.5,11.2,11.7c2.1,5.2,2,10.9-0.3,16
	C856.5,749.2,849,754.1,840.5,754.1z"/>
<path fill="#AEA8A3" d="M840.5,754.1c-11.5,0-20.9-9.4-20.9-20.9V416.7c0-11.5,9.4-20.9,20.9-20.9c11.5,0,20.9,9.4,20.9,20.9
	l0,316.7c0.1,5.4-1.9,10.5-5.7,14.3C851.7,751.8,846.3,754.1,840.5,754.1z"/>
<path fill="#AEA8A3" d="M840.5,438c-3.5,0-8.6-0.8-13.1-4.6l-0.2-0.1c-4.4-3.5-7.1-8.5-7.6-14.1c-0.6-5.6,1.1-11,4.7-15.3
	l175.3-214.6c4-5,9.9-7.8,16.2-7.8c4.8,0,9.5,1.7,13.2,4.8l0.1,0.1c4.4,3.5,7.1,8.5,7.6,14.1c0.6,5.6-1.1,11-4.7,15.3L857,430.1
	C853,435.1,847,438,840.5,438z"/>
</svg>
