<?xml version="1.0" encoding="utf-8"?>
<!-- Generator: Adobe Illustrator 18.0.0, SVG Export Plug-In . SVG Version: 6.00 Build 0)  -->
<!DOCTYPE svg PUBLIC "-//W3C//DTD SVG 1.1//EN" "http://www.w3.org/Graphics/SVG/1.1/DTD/svg11.dtd">
<svg version="1.1" id="Layer_1" xmlns="http://www.w3.org/2000/svg" xmlns:xlink="http://www.w3.org/1999/xlink" x="0px" y="0px"
	 viewBox="342.9 145.8 184.6 184.6" enable-background="new 342.9 145.8 184.6 184.6" xml:space="preserve">
<g>
	<path d="M435.2,280.8c-23.5,0-42.6-19.1-42.6-42.6s19.1-42.6,42.6-42.6c23.5,0,42.6,19.1,42.6,42.6S458.7,280.8,435.2,280.8z
		 M435.2,209.8c-15.6,0-28.4,12.7-28.4,28.4s12.7,28.4,28.4,28.4s28.4-12.7,28.4-28.4S450.9,209.8,435.2,209.8z"/>
</g>
<g>
	<g>
		<path d="M435.3,330.4c-4.1,0-8.2-0.3-12.2-0.8c-2.7-0.4-5-2.3-5.9-4.9c-2-6.1-6.5-11.1-12.4-13.5c-5.9-2.4-12.7-2.2-18.3,0.8
			c-2.5,1.3-5.4,1-7.6-0.7c-6.4-5-12.2-10.7-17-17.1c-1.7-2.2-1.9-5.2-0.7-7.6c3-5.8,3.3-12.4,0.9-18.3c-2.4-5.8-7.3-10.3-13.5-12.3
			c-2.6-0.8-4.5-3.1-4.9-5.9c-1-8-1-16.1,0-24.1c0.4-2.7,2.3-5,4.9-5.9c6.1-2,11.1-6.5,13.5-12.4c2.5-5.9,2.2-12.6-0.8-18.3
			c-1.3-2.5-1-5.4,0.7-7.6c5-6.4,10.7-12.2,17.1-17c2.2-1.7,5.1-1.9,7.6-0.7c5.7,3,12.4,3.3,18.3,0.9c5.8-2.4,10.3-7.3,12.3-13.5
			c0.8-2.6,3.1-4.5,5.9-4.9c7.9-1,16.1-1,24.1,0c2.7,0.4,5,2.3,5.9,4.9c2,6.1,6.5,11.1,12.4,13.5c5.9,2.5,12.7,2.2,18.3-0.8
			c2.5-1.3,5.4-1,7.6,0.7c6.4,5,12.2,10.7,17,17.1c1.7,2.2,1.9,5.2,0.7,7.6c-3,5.8-3.3,12.4-0.9,18.3c2.4,5.8,7.3,10.3,13.5,12.3
			c2.6,0.8,4.5,3.1,4.9,5.9c1,8,1,16.1,0,24.1c-0.4,2.7-2.3,5-4.9,5.9c-6.1,2-11.1,6.5-13.5,12.4c-2.5,5.9-2.2,12.6,0.8,18.3
			c1.3,2.5,1,5.4-0.7,7.6c-5,6.4-10.7,12.2-17.1,17c-2.2,1.7-5.1,1.9-7.6,0.7c-5.7-2.9-12.4-3.3-18.3-0.9
			c-5.8,2.4-10.3,7.3-12.3,13.5c-0.8,2.6-3.1,4.5-5.9,4.9C443.3,330.2,439.3,330.4,435.3,330.4z M429.1,315.9
			c4.1,0.3,8.1,0.3,12.2,0c3.8-8.1,10.5-14.5,18.7-17.9c8.2-3.4,17.5-3.5,25.9-0.5c3.1-2.6,6-5.5,8.6-8.6c-3-8.4-2.8-17.6,0.7-25.9
			c3.5-8.3,9.9-15,17.9-18.8c0.3-4.1,0.3-8.1,0-12.2c-8.1-3.8-14.5-10.4-17.9-18.7c-3.4-8.2-3.5-17.4-0.5-25.9
			c-2.6-3.1-5.5-6-8.6-8.6c-8.4,3-17.7,2.7-25.9-0.7c-8.3-3.5-15-9.9-18.8-17.9c-4.1-0.3-8.1-0.3-12.2,0
			c-3.8,8.1-10.5,14.5-18.7,17.9c-8.2,3.4-17.5,3.5-25.9,0.5c-3.1,2.6-6,5.5-8.6,8.6c3,8.4,2.8,17.6-0.7,25.9
			c-3.5,8.3-9.9,15-17.9,18.8c-0.3,4.1-0.3,8.1,0,12.2c8.1,3.8,14.5,10.4,17.9,18.7c3.4,8.2,3.5,17.4,0.5,25.9
			c2.6,3.1,5.5,6,8.6,8.6c8.4-3,17.7-2.7,25.9,0.7C418.6,301.4,425.3,307.8,429.1,315.9z"/>
	</g>
</g>
</svg>
